<?xml version="1.0" standalone="no"?>
<!DOCTYPE svg PUBLIC "-//W3C//DTD SVG 20010904//EN"
 "http://www.w3.org/TR/2001/REC-SVG-20010904/DTD/svg10.dtd">
<svg version="1.0" xmlns="http://www.w3.org/2000/svg"
 width="500.000000pt" height="500.000000pt" viewBox="0 0 500.000000 500.000000"
 preserveAspectRatio="xMidYMid meet">

<g transform="translate(0.000000,500.000000) scale(0.100000,-0.100000)"
fill="#000000" stroke="none">
<path d="M2608 2923 c-14 -16 -30 -37 -36 -48 l-11 -20 -2 20 c-1 11 -2 27 -3
35 -1 10 -11 15 -31 15 -25 0 -33 -7 -48 -37 -21 -44 -60 -224 -52 -238 19
-30 67 3 79 53 6 24 9 27 21 17 12 -10 20 -9 38 3 22 14 22 14 19 -24 -4 -36
-2 -39 22 -39 15 0 30 8 36 20 13 25 43 239 36 257 -9 22 -41 15 -68 -14z"/>
<path d="M2350 2924 c-41 -14 -47 -20 -57 -57 -6 -23 -18 -67 -27 -97 -9 -30
-16 -74 -16 -97 0 -40 2 -42 33 -48 17 -3 50 0 72 7 32 11 40 18 40 38 0 22
-5 25 -37 28 -21 2 -38 7 -38 11 0 12 23 36 53 54 35 22 36 46 2 39 -15 -2
-25 0 -25 7 0 17 46 61 64 61 17 0 32 42 21 59 -8 14 -31 13 -85 -5z"/>
</g>
</svg>
