<?xml version="1.0" standalone="no"?>
<!DOCTYPE svg PUBLIC "-//W3C//DTD SVG 20010904//EN"
 "http://www.w3.org/TR/2001/REC-SVG-20010904/DTD/svg10.dtd">
<svg version="1.0" xmlns="http://www.w3.org/2000/svg"
 width="500.000000pt" height="500.000000pt" viewBox="0 0 500.000000 500.000000"
 preserveAspectRatio="xMidYMid meet">
<metadata>
Created by potrace 1.15, written by Peter Selinger 2001-2017
</metadata>
<g transform="translate(0.000000,500.000000) scale(0.100000,-0.100000)"
fill="#000000" stroke="none">
<path d="M2608 2933 c-9 -10 -24 -32 -32 -48 l-16 -30 0 36 c0 40 -13 51 -47
38 -28 -10 -46 -46 -67 -134 -24 -103 -25 -148 -3 -153 25 -5 54 24 63 62 4
17 9 25 11 19 6 -16 35 -17 51 -1 9 9 12 4 12 -25 0 -32 3 -37 24 -37 13 0 28
6 34 13 12 15 31 132 35 212 2 58 1 60 -24 63 -15 2 -32 -4 -41 -15z"/>
<path d="M2350 2925 l-45 -14 -28 -93 c-15 -51 -27 -114 -27 -140 0 -43 2 -47
29 -53 16 -3 48 -1 70 5 71 19 74 70 5 70 -28 0 -31 3 -27 21 3 11 13 23 22
26 48 17 71 68 26 57 -14 -3 -25 -3 -25 1 0 20 25 47 56 60 30 12 35 19 32 42
-4 34 -24 38 -88 18z"/>
</g>
</svg>
